<svg xmlns="http://www.w3.org/2000/svg" width="1920" height="1080" viewBox="0 0 1920 1080">
  <defs>
    <linearGradient id="sky" x1="0" y1="0" x2="0" y2="1">
      <stop offset="0" stop-color="#0b2018"/>
      <stop offset="1" stop-color="#143a2a"/>
    </linearGradient>
    <linearGradient id="sun" x1="0" y1="0" x2="1" y2="1">
      <stop offset="0" stop-color="#f6d27a" stop-opacity="0.55"/>
      <stop offset="1" stop-color="#d4a840" stop-opacity="0"/>
    </linearGradient>
    <filter id="grain" x="-20%" y="-20%" width="140%" height="140%">
      <feTurbulence type="fractalNoise" baseFrequency="0.9" numOctaves="2" stitchTiles="stitch" />
      <feColorMatrix type="matrix" values="
        0 0 0 0 0
        0 0 0 0 0
        0 0 0 0 0
        0 0 0 .18 0" />
    </filter>
    <linearGradient id="fieldA" x1="0" y1="0" x2="1" y2="1">
      <stop offset="0" stop-color="#1c5b40"/>
      <stop offset="1" stop-color="#133c2c"/>
    </linearGradient>
    <linearGradient id="fieldB" x1="1" y1="0" x2="0" y2="1">
      <stop offset="0" stop-color="#2a6b46"/>
      <stop offset="1" stop-color="#154432"/>
    </linearGradient>
  </defs>

  <rect width="1920" height="1080" fill="url(#sky)"/>
  <rect x="-240" y="-240" width="1200" height="800" fill="url(#sun)"/>

  <!-- Abstract farm rows -->
  <g opacity="0.92">
    <path d="M-40 560 C 280 520, 520 620, 920 585 C 1240 560, 1520 640, 1960 600 L 1960 1080 L -40 1080 Z" fill="url(#fieldA)"/>
    <path d="M-60 650 C 260 600, 560 720, 920 690 C 1260 665, 1500 760, 1980 720 L 1980 1080 L -60 1080 Z" fill="url(#fieldB)" opacity="0.95"/>
    <path d="M-80 740 C 260 700, 560 820, 920 790 C 1240 770, 1520 860, 2000 820 L 2000 1080 L -80 1080 Z" fill="url(#fieldA)" opacity="0.9"/>
  </g>

  <!-- Row lines -->
  <g fill="none" stroke="#0a241a" stroke-opacity="0.35" stroke-width="6">
    <path d="M-120 600 C 240 540, 560 660, 960 625 C 1320 595, 1620 690, 2040 645"/>
    <path d="M-120 670 C 240 610, 560 730, 960 695 C 1320 665, 1620 760, 2040 715"/>
    <path d="M-120 740 C 240 680, 560 800, 960 765 C 1320 735, 1620 830, 2040 785"/>
    <path d="M-120 810 C 240 750, 560 870, 960 835 C 1320 805, 1620 900, 2040 855"/>
  </g>

  <!-- Grain overlay -->
  <rect width="1920" height="1080" filter="url(#grain)" opacity="0.5"/>
</svg>

